<?xml version="1.0" standalone="no"?>
<!DOCTYPE svg PUBLIC "-//W3C//DTD SVG 20010904//EN"
 "http://www.w3.org/TR/2001/REC-SVG-20010904/DTD/svg10.dtd">
<svg version="1.0" xmlns="http://www.w3.org/2000/svg"
 width="275.000000pt" height="275.000000pt" viewBox="0 0 275.000000 275.000000"
 preserveAspectRatio="xMidYMid meet">
<metadata>
Created by potrace 1.14, written by Peter Selinger 2001-2017
</metadata>
<g transform="translate(0.000000,275.000000) scale(0.100000,-0.100000)"
fill="#000000" stroke="none">
<path d="M1295 2005 c-68 -20 -121 -52 -174 -105 -51 -50 -107 -128 -103 -142
1 -5 -2 -8 -7 -8 -12 0 -65 -129 -85 -208 -38 -146 -39 -321 -3 -441 71 -231
262 -384 470 -375 77 3 86 5 132 23 98 38 173 100 234 191 20 30 36 60 37 65
0 6 7 24 14 40 7 17 14 33 15 38 2 4 3 8 5 10 1 1 3 9 5 17 13 60 16 81 20
125 2 28 4 55 5 60 1 6 1 12 0 15 -1 3 -3 25 -4 50 -5 75 -16 131 -42 205 -13
39 -26 77 -28 85 -9 37 -95 180 -107 180 -5 0 -9 6 -9 14 0 22 -110 117 -166
143 -60 27 -153 36 -209 18z"/>
</g>
</svg>
